<svg width="24" height="24" viewBox="0 0 24 24" fill="none" xmlns="http://www.w3.org/2000/svg">
<path d="M19.3278 12.0001C19.3278 11.7816 19.318 11.5726 19.2984 11.3541L21.1157 10.0146C21.5065 9.72956 21.614 9.19756 21.3698 8.77956L19.5427 5.71106C19.2984 5.29306 18.7708 5.12206 18.3214 5.31206L16.2208 6.17656C15.8593 5.92956 15.4782 5.71106 15.0777 5.53056L14.7943 3.33606C14.7357 2.86106 14.3156 2.50006 13.8271 2.50006H10.1827C9.68443 2.50006 9.2643 2.86106 9.20568 3.33606L8.92234 5.53056C8.52176 5.71106 8.14071 5.92956 7.77921 6.17656L5.67859 5.31206C5.22915 5.12206 4.70155 5.29306 4.45729 5.71106L2.63024 8.78906C2.38598 9.20706 2.49345 9.72956 2.88427 10.0241L4.70155 11.3636C4.68201 11.5726 4.67224 11.7816 4.67224 12.0001C4.67224 12.2186 4.68201 12.4276 4.70155 12.6461L2.88427 13.9856C2.49345 14.2706 2.38598 14.8026 2.63024 15.2206L4.45729 18.2891C4.70155 18.7071 5.22915 18.8781 5.67859 18.6881L7.77921 17.8236C8.14071 18.0706 8.52176 18.2891 8.92234 18.4696L9.20568 20.6641C9.2643 21.1391 9.68443 21.5001 10.1729 21.5001H13.8173C14.3058 21.5001 14.7259 21.1391 14.7845 20.6641L15.0679 18.4696C15.4685 18.2891 15.8495 18.0706 16.211 17.8236L18.3116 18.6881C18.7611 18.8781 19.2887 18.7071 19.5329 18.2891L21.36 15.2206C21.6042 14.8026 21.4968 14.2801 21.106 13.9856L19.2887 12.6461C19.318 12.4276 19.3278 12.2186 19.3278 12.0001ZM12.0391 15.3251C10.1534 15.3251 8.61946 13.8336 8.61946 12.0001C8.61946 10.1666 10.1534 8.67506 12.0391 8.67506C13.9248 8.67506 15.4587 10.1666 15.4587 12.0001C15.4587 13.8336 13.9248 15.3251 12.0391 15.3251Z" fill="black" fill-opacity="0.75"/>
</svg>
